# xmcd
#
# Track frame offsets: 
#        150
#        12915
#        25837
#        38974
#        49456
#        61068
#        73132
#        84673
#        97550
#        110869
#        126247
#        139555
#        154500
#        167109
#        181233
#        195291
#        209189
#        222912
#        237224
#        251688
#
# Disc length: 3542 seconds
#
# Revision: 2
# Processed by: cddbd v1.5.2PL0 Copyright (c) Steve Scherf et al.
# Submitted via: ExactAudioCopyFreeDBPlugin 1.0
#
DISCID=1a0dd414
DTITLE=Various Artist - Vintage Sex Songs [CD2 of 2)
DYEAR=2008
DGENRE=R&B
TTITLE0=He's Just My Size - [Lillie Mae Kirkman - Kirkman - Curry 1939
TTITLE0=]
TTITLE1=If It Don't Fit, Don't Force It - [Barrelhouse Annie - Annie 1
TTITLE1=937]
TTITLE2=I'm A Mighty Tight Woman - [Sippie Wallace - Wallace 1926]
TTITLE3=Sit Right On It - [Johnny Temple - Temple 1938]
TTITLE4=Poon Tang - [The Treniers - Adler - Ross 1952]
TTITLE5=Let Me Ride In Your Little Automobile - [Lowell Fulson - Fulso
TTITLE5=n 1953]
TTITLE6=Let Me Play With Your Poodle - [Lightnin' Hopkins - Whittaker 
TTITLE6=1947]
TTITLE7=Let Me Squeeze Your Lemon - [Charlie Pickett - Pickett 1937]
TTITLE8=My Pencil Won't Write No More - [Bo Carter - Carter 1931]
TTITLE9=Driving That Thing - [The Mississippi Sheiks - Jacobs - Carter
TTITLE9=1931]
TTITLE10=The Best Jockey In Town - [Lonnie Johnson - Johnson 1931]
TTITLE11=My Daddy Was A Jockey - [John Lee Hooker - Hooker 1951]
TTITLE12=Sweet Honey Hole - [Blind Boy Fuller - Allen 1937]
TTITLE13=Sarah Jane - [Jazz Gillum - Gillum 1936]
TTITLE14=I Want My Fanny Brown - [Wynonie Harris - Harris 1948]
TTITLE15=Good Cabbage - [Victoria Spivey - Spivey 1937]
TTITLE16=Sam The Hot Dog Man - [Lil Johnson - Johnson 1936]
TTITLE17=Banana In Your Fruit Basket - [Bo Carter - Carter 1931]
TTITLE18=Baby Let's Go Down To The Woods - [Floyd Dixon - Dixon 1951]
TTITLE19=Shave 'Em Dry - [Lucille Bogan - Bogan 1935]
EXTD=
EXTT0=
EXTT1=
EXTT2=
EXTT3=
EXTT4=
EXTT5=
EXTT6=
EXTT7=
EXTT8=
EXTT9=
EXTT10=
EXTT11=
EXTT12=
EXTT13=
EXTT14=
EXTT15=
EXTT16=
EXTT17=
EXTT18=
EXTT19=
PLAYORDER=
